<svg xmlns="http://www.w3.org/2000/svg" xmlns:xlink="http://www.w3.org/1999/xlink" width="256" zoomAndPan="magnify" viewBox="0 0 192 30.000001" height="40" preserveAspectRatio="xMidYMid meet" version="1.0"><defs><g/><clipPath id="bf5564c706"><path d="M 105.636719 15.050781 L 111.441406 15.050781 L 111.441406 20.859375 L 105.636719 20.859375 Z M 105.636719 15.050781 " clip-rule="nonzero"/></clipPath><clipPath id="6191c2940c"><path d="M 25 6 L 32.628906 6 L 32.628906 13 L 25 13 Z M 25 6 " clip-rule="nonzero"/></clipPath><clipPath id="a8e175bbf1"><path d="M 16 14 L 27 14 L 27 25.992188 L 16 25.992188 Z M 16 14 " clip-rule="nonzero"/></clipPath><clipPath id="243e38141b"><path d="M 23 14 L 32.628906 14 L 32.628906 24 L 23 24 Z M 23 14 " clip-rule="nonzero"/></clipPath><clipPath id="0f9b2f20d4"><path d="M 10 0.589844 L 17 0.589844 L 17 7 L 10 7 Z M 10 0.589844 " clip-rule="nonzero"/></clipPath><clipPath id="ba7d792cb5"><path d="M 8.679688 6 L 12 6 L 12 11 L 8.679688 11 Z M 8.679688 6 " clip-rule="nonzero"/></clipPath></defs><g fill="#8174a0" fill-opacity="1"><g transform="translate(35.486365, 25.271102)"><g><path d="M -0.46875 0 L -0.46875 -0.359375 C -0.0820312 -0.484375 0.289062 -0.734375 0.65625 -1.109375 C 1.019531 -1.484375 1.414062 -2.195312 1.84375 -3.25 L 7.265625 -16.671875 C 7.421875 -17.109375 7.398438 -17.535156 7.203125 -17.953125 L 6.953125 -18.53125 L 9.015625 -19.46875 L 15.78125 -3.21875 C 16.207031 -2.1875 16.585938 -1.484375 16.921875 -1.109375 C 17.265625 -0.734375 17.582031 -0.484375 17.875 -0.359375 L 17.875 0 L 13.609375 0 L 13.609375 -0.359375 C 14.035156 -0.484375 14.210938 -0.734375 14.140625 -1.109375 C 14.066406 -1.484375 13.804688 -2.1875 13.359375 -3.21875 L 11.6875 -7.265625 L 3.9375 -7.265625 L 2.3125 -3.25 C 1.613281 -1.5 1.722656 -0.535156 2.640625 -0.359375 L 2.640625 0 Z M 4.09375 -7.671875 L 11.515625 -7.671875 L 7.75 -16.71875 Z M 4.09375 -7.671875 "/></g></g></g><g fill="#8174a0" fill-opacity="1"><g transform="translate(51.52058, 25.271102)"><g><path d="M 15.40625 0.1875 C 14.707031 0.1875 14.15625 0.0195312 13.75 -0.3125 C 13.34375 -0.65625 12.988281 -1.148438 12.6875 -1.796875 C 12.382812 -2.453125 12.03125 -3.253906 11.625 -4.203125 C 11.226562 -5.160156 10.890625 -5.992188 10.609375 -6.703125 C 10.335938 -7.421875 10.039062 -8.019531 9.71875 -8.5 C 9.394531 -8.976562 8.984375 -9.332031 8.484375 -9.5625 C 7.992188 -9.800781 7.335938 -9.921875 6.515625 -9.921875 L 4.75 -9.921875 L 4.75 -3.5 C 4.75 -2.375 4.828125 -1.597656 4.984375 -1.171875 C 5.140625 -0.753906 5.429688 -0.484375 5.859375 -0.359375 L 5.859375 0 L 1.40625 0 L 1.40625 -0.359375 C 1.820312 -0.484375 2.109375 -0.753906 2.265625 -1.171875 C 2.421875 -1.597656 2.5 -2.375 2.5 -3.5 L 2.5 -15.75 C 2.5 -16.894531 2.421875 -17.671875 2.265625 -18.078125 C 2.109375 -18.492188 1.820312 -18.765625 1.40625 -18.890625 L 1.40625 -19.25 L 6.8125 -19.25 C 8.6875 -19.25 10.144531 -19.0625 11.1875 -18.6875 C 12.238281 -18.3125 12.976562 -17.800781 13.40625 -17.15625 C 13.832031 -16.519531 14.046875 -15.785156 14.046875 -14.953125 C 14.046875 -13.671875 13.585938 -12.578125 12.671875 -11.671875 C 11.753906 -10.765625 10.398438 -10.210938 8.609375 -10.015625 C 9.453125 -9.898438 10.140625 -9.707031 10.671875 -9.4375 C 11.203125 -9.175781 11.640625 -8.820312 11.984375 -8.375 C 12.335938 -7.925781 12.648438 -7.378906 12.921875 -6.734375 C 13.203125 -6.097656 13.503906 -5.359375 13.828125 -4.515625 C 14.273438 -3.410156 14.648438 -2.554688 14.953125 -1.953125 C 15.253906 -1.347656 15.53125 -0.921875 15.78125 -0.671875 C 16.039062 -0.421875 16.328125 -0.296875 16.640625 -0.296875 C 16.734375 -0.296875 16.8125 -0.296875 16.875 -0.296875 C 16.9375 -0.296875 17.003906 -0.304688 17.078125 -0.328125 L 17.078125 0 C 16.878906 0.0703125 16.617188 0.117188 16.296875 0.140625 C 15.972656 0.171875 15.675781 0.1875 15.40625 0.1875 Z M 4.75 -10.34375 L 7.0625 -10.34375 C 8.644531 -10.34375 9.816406 -10.710938 10.578125 -11.453125 C 11.335938 -12.191406 11.71875 -13.148438 11.71875 -14.328125 C 11.71875 -15.148438 11.53125 -15.898438 11.15625 -16.578125 C 10.78125 -17.253906 10.171875 -17.800781 9.328125 -18.21875 C 8.492188 -18.632812 7.398438 -18.84375 6.046875 -18.84375 C 5.847656 -18.84375 5.640625 -18.835938 5.421875 -18.828125 C 5.203125 -18.816406 4.976562 -18.800781 4.75 -18.78125 Z M 4.75 -10.34375 "/></g></g></g><g fill="#8174a0" fill-opacity="1"><g transform="translate(66.757188, 25.271102)"><g><path d="M 0.578125 0 L 0.578125 -0.359375 L 11.171875 -18.8125 L 6.40625 -18.8125 C 5.007812 -18.8125 3.945312 -18.554688 3.21875 -18.046875 C 2.488281 -17.546875 1.875 -16.664062 1.375 -15.40625 L 1.078125 -15.40625 L 1.515625 -19.25 L 13.78125 -19.25 L 13.78125 -18.890625 L 3.109375 -0.4375 L 8.0625 -0.4375 C 9.195312 -0.4375 10.109375 -0.550781 10.796875 -0.78125 C 11.484375 -1.007812 12.039062 -1.394531 12.46875 -1.9375 C 12.90625 -2.476562 13.304688 -3.207031 13.671875 -4.125 L 13.9375 -4.125 L 13.453125 0 Z M 0.578125 0 "/></g></g></g><g fill="#8174a0" fill-opacity="1"><g transform="translate(79.683465, 25.271102)"><g><path d="M 9.921875 0.28125 C 8.929688 0.28125 7.972656 0.148438 7.046875 -0.109375 C 6.128906 -0.367188 5.300781 -0.78125 4.5625 -1.34375 C 3.832031 -1.914062 3.242188 -2.671875 2.796875 -3.609375 C 2.359375 -4.554688 2.140625 -5.71875 2.140625 -7.09375 L 2.140625 -15.75 C 2.140625 -16.894531 2.0625 -17.671875 1.90625 -18.078125 C 1.75 -18.492188 1.460938 -18.765625 1.046875 -18.890625 L 1.046875 -19.25 L 5.5 -19.25 L 5.5 -18.890625 C 5.09375 -18.765625 4.804688 -18.492188 4.640625 -18.078125 C 4.484375 -17.671875 4.40625 -16.894531 4.40625 -15.75 L 4.40625 -7.265625 C 4.40625 -5.554688 4.6875 -4.191406 5.25 -3.171875 C 5.820312 -2.160156 6.59375 -1.425781 7.5625 -0.96875 C 8.53125 -0.519531 9.613281 -0.296875 10.8125 -0.296875 C 11.394531 -0.296875 12.003906 -0.40625 12.640625 -0.625 C 13.285156 -0.851562 13.890625 -1.234375 14.453125 -1.765625 C 15.015625 -2.296875 15.46875 -3.007812 15.8125 -3.90625 C 16.15625 -4.800781 16.328125 -5.921875 16.328125 -7.265625 L 16.328125 -14.65625 C 16.328125 -15.695312 16.253906 -16.503906 16.109375 -17.078125 C 15.960938 -17.660156 15.75 -18.082031 15.46875 -18.34375 C 15.195312 -18.601562 14.863281 -18.785156 14.46875 -18.890625 L 14.46875 -19.25 L 17.875 -19.25 L 17.875 -18.890625 C 17.46875 -18.765625 17.179688 -18.492188 17.015625 -18.078125 C 16.859375 -17.671875 16.78125 -16.894531 16.78125 -15.75 L 16.78125 -7.34375 C 16.78125 -5.507812 16.472656 -4.03125 15.859375 -2.90625 C 15.242188 -1.789062 14.421875 -0.976562 13.390625 -0.46875 C 12.367188 0.03125 11.210938 0.28125 9.921875 0.28125 Z M 9.921875 0.28125 "/></g></g></g><g fill="#8174a0" fill-opacity="1"><g transform="translate(96.76283, 25.271102)"><g/></g></g><g fill="#8174a0" fill-opacity="1"><g transform="translate(100.942882, 25.271102)"><g><path d="M -0.46875 0 L -0.46875 -0.359375 C -0.0820312 -0.484375 0.289062 -0.734375 0.65625 -1.109375 C 1.019531 -1.484375 1.414062 -2.195312 1.84375 -3.25 L 7.265625 -16.671875 C 7.421875 -17.109375 7.398438 -17.535156 7.203125 -17.953125 L 6.953125 -18.53125 L 9.015625 -19.46875 L 15.78125 -3.21875 C 16.207031 -2.1875 16.585938 -1.484375 16.921875 -1.109375 C 17.265625 -0.734375 17.582031 -0.484375 17.875 -0.359375 L 17.875 0 L 13.609375 0 L 13.609375 -0.359375 C 14.035156 -0.484375 14.210938 -0.734375 14.140625 -1.109375 C 14.066406 -1.484375 13.804688 -2.1875 13.359375 -3.21875 L 11.6875 -7.265625 L 3.9375 -7.265625 L 2.3125 -3.25 C 1.613281 -1.5 1.722656 -0.535156 2.640625 -0.359375 L 2.640625 0 Z M 4.09375 -7.671875 L 11.515625 -7.671875 L 7.75 -16.71875 Z M 4.09375 -7.671875 "/></g></g></g><g fill="#8174a0" fill-opacity="1"><g transform="translate(116.977096, 25.271102)"><g><path d="M 1.375 0 L 1.375 -0.359375 C 1.789062 -0.484375 2.078125 -0.753906 2.234375 -1.171875 C 2.390625 -1.597656 2.46875 -2.375 2.46875 -3.5 L 2.46875 -14.65625 C 2.46875 -15.695312 2.40625 -16.503906 2.28125 -17.078125 C 2.15625 -17.660156 1.96875 -18.082031 1.71875 -18.34375 C 1.46875 -18.601562 1.160156 -18.785156 0.796875 -18.890625 L 0.796875 -19.25 L 4.125 -19.25 L 11.296875 -7.390625 L 18.34375 -19.25 L 21.453125 -19.25 L 21.453125 -18.890625 C 21.085938 -18.785156 20.78125 -18.601562 20.53125 -18.34375 C 20.28125 -18.082031 20.085938 -17.660156 19.953125 -17.078125 C 19.828125 -16.503906 19.765625 -15.695312 19.765625 -14.65625 L 19.765625 -3.5 C 19.765625 -2.375 19.84375 -1.597656 20 -1.171875 C 20.15625 -0.753906 20.445312 -0.484375 20.875 -0.359375 L 20.875 0 L 16.421875 0 L 16.421875 -0.359375 C 16.835938 -0.484375 17.125 -0.753906 17.28125 -1.171875 C 17.4375 -1.597656 17.515625 -2.375 17.515625 -3.5 L 17.515625 -17.015625 L 10.53125 -5.21875 L 10.015625 -5.21875 L 2.96875 -16.796875 L 2.96875 -4.59375 C 2.96875 -3.550781 3.039062 -2.742188 3.1875 -2.171875 C 3.332031 -1.597656 3.539062 -1.175781 3.8125 -0.90625 C 4.09375 -0.644531 4.4375 -0.460938 4.84375 -0.359375 L 4.84375 0 Z M 1.375 0 "/></g></g></g><g fill="#8174a0" fill-opacity="1"><g transform="translate(138.237048, 25.271102)"><g><path d="M 1.40625 0 L 1.40625 -0.359375 C 1.820312 -0.484375 2.109375 -0.753906 2.265625 -1.171875 C 2.421875 -1.597656 2.5 -2.375 2.5 -3.5 L 2.5 -15.75 C 2.5 -16.894531 2.421875 -17.671875 2.265625 -18.078125 C 2.109375 -18.492188 1.820312 -18.765625 1.40625 -18.890625 L 1.40625 -19.25 L 7.84375 -19.25 C 9.96875 -19.25 11.492188 -18.921875 12.421875 -18.265625 C 13.347656 -17.617188 13.8125 -16.738281 13.8125 -15.625 C 13.8125 -14.6875 13.476562 -13.832031 12.8125 -13.0625 C 12.15625 -12.289062 11.035156 -11.757812 9.453125 -11.46875 C 10.960938 -11.394531 12.191406 -11.117188 13.140625 -10.640625 C 14.097656 -10.160156 14.804688 -9.546875 15.265625 -8.796875 C 15.722656 -8.046875 15.953125 -7.222656 15.953125 -6.328125 C 15.972656 -5.554688 15.828125 -4.796875 15.515625 -4.046875 C 15.203125 -3.296875 14.695312 -2.613281 14 -2 C 13.300781 -1.394531 12.378906 -0.910156 11.234375 -0.546875 C 10.085938 -0.179688 8.679688 0 7.015625 0 Z M 4.75 -2.8125 C 4.75 -1.8125 4.84375 -1.160156 5.03125 -0.859375 C 5.21875 -0.554688 5.601562 -0.40625 6.1875 -0.40625 L 7.265625 -0.40625 C 8.765625 -0.40625 9.960938 -0.628906 10.859375 -1.078125 C 11.753906 -1.535156 12.410156 -2.15625 12.828125 -2.9375 C 13.242188 -3.726562 13.453125 -4.628906 13.453125 -5.640625 C 13.453125 -6.703125 13.25 -7.640625 12.84375 -8.453125 C 12.4375 -9.273438 11.796875 -9.921875 10.921875 -10.390625 C 10.054688 -10.867188 8.9375 -11.109375 7.5625 -11.109375 L 4.75 -11.109375 Z M 4.75 -11.515625 L 7.3125 -11.515625 C 8.664062 -11.515625 9.664062 -11.863281 10.3125 -12.5625 C 10.96875 -13.257812 11.296875 -14.113281 11.296875 -15.125 C 11.296875 -16.257812 10.90625 -17.160156 10.125 -17.828125 C 9.351562 -18.503906 8.257812 -18.84375 6.84375 -18.84375 L 4.75 -18.84375 Z M 4.75 -11.515625 "/></g></g></g><g fill="#8174a0" fill-opacity="1"><g transform="translate(153.473663, 25.271102)"><g><path d="M 1.40625 0 L 1.40625 -0.359375 C 1.820312 -0.484375 2.109375 -0.753906 2.265625 -1.171875 C 2.421875 -1.597656 2.5 -2.375 2.5 -3.5 L 2.5 -15.75 C 2.5 -16.894531 2.421875 -17.671875 2.265625 -18.078125 C 2.109375 -18.492188 1.820312 -18.765625 1.40625 -18.890625 L 1.40625 -19.25 L 14.1875 -19.25 L 14.5 -15.671875 L 14.1875 -15.59375 C 13.707031 -16.800781 13.039062 -17.644531 12.1875 -18.125 C 11.34375 -18.601562 10.210938 -18.84375 8.796875 -18.84375 L 4.75 -18.84375 L 4.75 -10.5 L 8.28125 -10.5 C 9.320312 -10.5 10.128906 -10.566406 10.703125 -10.703125 C 11.285156 -10.847656 11.707031 -11.0625 11.96875 -11.34375 C 12.238281 -11.625 12.429688 -11.96875 12.546875 -12.375 L 12.875 -12.375 L 12.875 -8.21875 L 12.546875 -8.21875 C 12.429688 -8.644531 12.238281 -8.992188 11.96875 -9.265625 C 11.707031 -9.546875 11.285156 -9.753906 10.703125 -9.890625 C 10.128906 -10.023438 9.320312 -10.09375 8.28125 -10.09375 L 4.75 -10.09375 L 4.75 -1.65625 C 4.75 -0.820312 5.164062 -0.40625 6 -0.40625 L 9.5625 -0.40625 C 10.882812 -0.40625 11.976562 -0.632812 12.84375 -1.09375 C 13.707031 -1.550781 14.382812 -2.425781 14.875 -3.71875 L 15.1875 -3.65625 L 14.953125 0 Z M 1.40625 0 "/></g></g></g><g fill="#8174a0" fill-opacity="1"><g transform="translate(168.077668, 25.271102)"><g><path d="M 15.40625 0.1875 C 14.707031 0.1875 14.15625 0.0195312 13.75 -0.3125 C 13.34375 -0.65625 12.988281 -1.148438 12.6875 -1.796875 C 12.382812 -2.453125 12.03125 -3.253906 11.625 -4.203125 C 11.226562 -5.160156 10.890625 -5.992188 10.609375 -6.703125 C 10.335938 -7.421875 10.039062 -8.019531 9.71875 -8.5 C 9.394531 -8.976562 8.984375 -9.332031 8.484375 -9.5625 C 7.992188 -9.800781 7.335938 -9.921875 6.515625 -9.921875 L 4.75 -9.921875 L 4.75 -3.5 C 4.75 -2.375 4.828125 -1.597656 4.984375 -1.171875 C 5.140625 -0.753906 5.429688 -0.484375 5.859375 -0.359375 L 5.859375 0 L 1.40625 0 L 1.40625 -0.359375 C 1.820312 -0.484375 2.109375 -0.753906 2.265625 -1.171875 C 2.421875 -1.597656 2.5 -2.375 2.5 -3.5 L 2.5 -15.75 C 2.5 -16.894531 2.421875 -17.671875 2.265625 -18.078125 C 2.109375 -18.492188 1.820312 -18.765625 1.40625 -18.890625 L 1.40625 -19.25 L 6.8125 -19.25 C 8.6875 -19.25 10.144531 -19.0625 11.1875 -18.6875 C 12.238281 -18.3125 12.976562 -17.800781 13.40625 -17.15625 C 13.832031 -16.519531 14.046875 -15.785156 14.046875 -14.953125 C 14.046875 -13.671875 13.585938 -12.578125 12.671875 -11.671875 C 11.753906 -10.765625 10.398438 -10.210938 8.609375 -10.015625 C 9.453125 -9.898438 10.140625 -9.707031 10.671875 -9.4375 C 11.203125 -9.175781 11.640625 -8.820312 11.984375 -8.375 C 12.335938 -7.925781 12.648438 -7.378906 12.921875 -6.734375 C 13.203125 -6.097656 13.503906 -5.359375 13.828125 -4.515625 C 14.273438 -3.410156 14.648438 -2.554688 14.953125 -1.953125 C 15.253906 -1.347656 15.53125 -0.921875 15.78125 -0.671875 C 16.039062 -0.421875 16.328125 -0.296875 16.640625 -0.296875 C 16.734375 -0.296875 16.8125 -0.296875 16.875 -0.296875 C 16.9375 -0.296875 17.003906 -0.304688 17.078125 -0.328125 L 17.078125 0 C 16.878906 0.0703125 16.617188 0.117188 16.296875 0.140625 C 15.972656 0.171875 15.675781 0.1875 15.40625 0.1875 Z M 4.75 -10.34375 L 7.0625 -10.34375 C 8.644531 -10.34375 9.816406 -10.710938 10.578125 -11.453125 C 11.335938 -12.191406 11.71875 -13.148438 11.71875 -14.328125 C 11.71875 -15.148438 11.53125 -15.898438 11.15625 -16.578125 C 10.78125 -17.253906 10.171875 -17.800781 9.328125 -18.21875 C 8.492188 -18.632812 7.398438 -18.84375 6.046875 -18.84375 C 5.847656 -18.84375 5.640625 -18.835938 5.421875 -18.828125 C 5.203125 -18.816406 4.976562 -18.800781 4.75 -18.78125 Z M 4.75 -10.34375 "/></g></g></g><g clip-path="url(#bf5564c706)"><path fill="#8174a0" d="M 111.726562 18.097656 C 109.441406 18.519531 109.101562 18.859375 108.679688 21.140625 C 108.261719 18.859375 107.921875 18.519531 105.636719 18.097656 C 107.921875 17.675781 108.261719 17.335938 108.679688 15.050781 C 109.101562 17.335938 109.441406 17.675781 111.726562 18.097656 Z M 111.726562 18.097656 " fill-opacity="1" fill-rule="nonzero"/></g><g clip-path="url(#6191c2940c)"><path fill="#8174a0" d="M 28.949219 6.960938 L 32.332031 12.9375 L 28.554688 12.9375 L 25.96875 6.960938 L 28.949219 6.960938 " fill-opacity="1" fill-rule="nonzero"/></g><path fill="#8174a0" d="M 24.167969 6.960938 L 26.753906 12.9375 L 16.386719 12.9375 L 18.972656 6.960938 L 24.167969 6.960938 " fill-opacity="1" fill-rule="nonzero"/><path fill="#8174a0" d="M 14.191406 6.960938 L 17.171875 6.960938 L 14.585938 12.9375 L 10.808594 12.9375 L 14.191406 6.960938 " fill-opacity="1" fill-rule="nonzero"/><path fill="#8174a0" d="M 10.808594 14.132812 L 14.570312 14.132812 L 19.167969 23.539062 C 19.222656 23.65625 19.066406 23.761719 18.980469 23.664062 L 10.808594 14.132812 " fill-opacity="1" fill-rule="nonzero"/><g clip-path="url(#a8e175bbf1)"><path fill="#8174a0" d="M 16.347656 14.132812 L 26.792969 14.132812 L 21.675781 26.023438 C 21.636719 26.113281 21.507812 26.113281 21.46875 26.023438 L 16.347656 14.132812 " fill-opacity="1" fill-rule="nonzero"/></g><g clip-path="url(#243e38141b)"><path fill="#8174a0" d="M 23.972656 23.539062 L 28.570312 14.132812 L 32.332031 14.132812 L 24.160156 23.660156 C 24.074219 23.761719 23.917969 23.65625 23.972656 23.539062 " fill-opacity="1" fill-rule="nonzero"/></g><path fill="#8174a0" d="M 20.351562 4.542969 L 22.0625 4.164062 L 20.351562 3.785156 L 19.96875 2.074219 L 19.589844 3.785156 L 17.878906 4.164062 L 19.59375 4.542969 L 19.96875 6.257812 L 20.351562 4.542969 " fill-opacity="1" fill-rule="nonzero"/><g clip-path="url(#0f9b2f20d4)"><path fill="#8174a0" d="M 14.195312 3.925781 L 16.472656 2.914062 L 13.980469 2.871094 L 12.96875 0.589844 L 12.921875 3.085938 L 10.644531 4.097656 L 13.136719 4.140625 L 14.148438 6.421875 L 14.195312 3.925781 " fill-opacity="1" fill-rule="nonzero"/></g><g clip-path="url(#ba7d792cb5)"><path fill="#8174a0" d="M 10.617188 8.753906 L 11.957031 8.457031 L 10.617188 8.160156 L 10.320312 6.820312 L 10.023438 8.160156 L 8.683594 8.457031 L 10.023438 8.753906 L 10.320312 10.09375 L 10.617188 8.753906 " fill-opacity="1" fill-rule="nonzero"/></g></svg>